<mxfile host="app.diagrams.net" modified="2024-06-26T14:26:04.294Z" agent="Mozilla/5.0 (Macintosh; Intel Mac OS X 10.15; rv:127.0) Gecko/20100101 Firefox/127.0" version="24.6.3" etag="sVUrtZx1pPyWWx5GC-Yw" type="github">
  <diagram name="Страница — 1" id="6uuEtal2mqd_P4e8RzI5">
    <mxGraphModel>
      <root>
        <mxCell id="0" />
        <mxCell id="1" parent="0" />
      </root>
    </mxGraphModel>
  </diagram>
</mxfile>
